<svg width="239" height="59" viewBox="0 0 239 59" fill="none" xmlns="http://www.w3.org/2000/svg">
<ellipse cx="26" cy="27.5" rx="26" ry="27.5" fill="white"/>
<ellipse cx="26" cy="28" rx="18" ry="20" fill="#C4C4C4"/>
<path d="M65.125 45H59.4609V15H65.125V45ZM82.0391 45C81.7786 44.4922 81.5898 43.8607 81.4727 43.1055C80.1055 44.6289 78.3281 45.3906 76.1406 45.3906C74.0703 45.3906 72.3516 44.7917 70.9844 43.5938C69.6302 42.3958 68.9531 40.8854 68.9531 39.0625C68.9531 36.8229 69.7799 35.1042 71.4336 33.9062C73.1003 32.7083 75.5026 32.1029 78.6406 32.0898H81.2383V30.8789C81.2383 29.9023 80.9844 29.1211 80.4766 28.5352C79.9818 27.9492 79.194 27.6562 78.1133 27.6562C77.1628 27.6562 76.4141 27.8841 75.8672 28.3398C75.3333 28.7956 75.0664 29.4206 75.0664 30.2148H69.4219C69.4219 28.9909 69.7995 27.8581 70.5547 26.8164C71.3099 25.7747 72.3776 24.9609 73.7578 24.375C75.138 23.776 76.6875 23.4766 78.4062 23.4766C81.0104 23.4766 83.0742 24.1341 84.5977 25.4492C86.1341 26.7513 86.9023 28.5872 86.9023 30.957V40.1172C86.9154 42.1224 87.1953 43.6393 87.7422 44.668V45H82.0391ZM77.3711 41.0742C78.2044 41.0742 78.9727 40.8919 79.6758 40.5273C80.3789 40.1497 80.8997 39.6484 81.2383 39.0234V35.3906H79.1289C76.3034 35.3906 74.7995 36.3672 74.6172 38.3203L74.5977 38.6523C74.5977 39.3555 74.8451 39.9349 75.3398 40.3906C75.8346 40.8464 76.5117 41.0742 77.3711 41.0742ZM109.617 37.3242L112.391 23.8672H117.84L112.449 45H107.723L103.719 31.6992L99.7148 45H95.0078L89.6172 23.8672H95.0664L97.8203 37.3047L101.688 23.8672H105.77L109.617 37.3242ZM132.898 45C132.638 44.4922 132.449 43.8607 132.332 43.1055C130.965 44.6289 129.188 45.3906 127 45.3906C124.93 45.3906 123.211 44.7917 121.844 43.5938C120.49 42.3958 119.812 40.8854 119.812 39.0625C119.812 36.8229 120.639 35.1042 122.293 33.9062C123.96 32.7083 126.362 32.1029 129.5 32.0898H132.098V30.8789C132.098 29.9023 131.844 29.1211 131.336 28.5352C130.841 27.9492 130.053 27.6562 128.973 27.6562C128.022 27.6562 127.273 27.8841 126.727 28.3398C126.193 28.7956 125.926 29.4206 125.926 30.2148H120.281C120.281 28.9909 120.659 27.8581 121.414 26.8164C122.169 25.7747 123.237 24.9609 124.617 24.375C125.997 23.776 127.547 23.4766 129.266 23.4766C131.87 23.4766 133.934 24.1341 135.457 25.4492C136.993 26.7513 137.762 28.5872 137.762 30.957V40.1172C137.775 42.1224 138.055 43.6393 138.602 44.668V45H132.898ZM128.23 41.0742C129.064 41.0742 129.832 40.8919 130.535 40.5273C131.238 40.1497 131.759 39.6484 132.098 39.0234V35.3906H129.988C127.163 35.3906 125.659 36.3672 125.477 38.3203L125.457 38.6523C125.457 39.3555 125.704 39.9349 126.199 40.3906C126.694 40.8464 127.371 41.0742 128.23 41.0742ZM148.055 45H142.391V15H148.055V45ZM162.449 45.3906C159.35 45.3906 156.824 44.4401 154.871 42.5391C152.931 40.638 151.961 38.1055 151.961 34.9414V34.3945C151.961 32.2721 152.371 30.3776 153.191 28.7109C154.012 27.0312 155.171 25.7422 156.668 24.8438C158.178 23.9323 159.897 23.4766 161.824 23.4766C164.715 23.4766 166.987 24.388 168.641 26.2109C170.307 28.0339 171.141 30.6185 171.141 33.9648V36.2695H157.684C157.866 37.6497 158.413 38.7565 159.324 39.5898C160.249 40.4232 161.414 40.8398 162.82 40.8398C164.995 40.8398 166.694 40.0521 167.918 38.4766L170.691 41.582C169.845 42.7799 168.699 43.7174 167.254 44.3945C165.809 45.0586 164.207 45.3906 162.449 45.3906ZM161.805 28.0469C160.685 28.0469 159.773 28.4245 159.07 29.1797C158.38 29.9349 157.938 31.0156 157.742 32.4219H165.594V31.9727C165.568 30.7227 165.229 29.7591 164.578 29.082C163.927 28.3919 163.003 28.0469 161.805 28.0469Z" fill="white"/>
<path d="M181.88 35.96C180.2 34.7067 179.36 33.92 179.36 33.6C179.36 33.28 180.2 32.5067 181.88 31.28C183.587 30.0267 185.52 28.8267 187.68 27.68C189.84 26.5333 191.44 25.96 192.48 25.96C193.013 25.96 193.453 26.0533 193.8 26.24C194.147 26.4 194.36 26.5733 194.44 26.76L194.56 27C192.347 27.88 190.267 28.88 188.32 30C186.373 31.0933 185.067 31.8933 184.4 32.4C183.76 32.88 183.253 33.28 182.88 33.6C183.733 34.4533 185.333 35.5467 187.68 36.88C190.027 38.1867 192.32 39.2933 194.56 40.2C194.453 40.4933 194.213 40.7467 193.84 40.96C193.467 41.1467 193.013 41.24 192.48 41.24C191.44 41.24 189.84 40.6667 187.68 39.52C185.52 38.3733 183.587 37.1867 181.88 35.96ZM200.866 47.52C200.546 48.16 200.2 48.48 199.826 48.48C199.48 48.48 199.08 48.2533 198.626 47.8L217.266 13.16C217.56 12.6267 217.84 12.36 218.106 12.36C218.586 12.36 219.026 12.5867 219.426 13.04L200.866 47.52ZM234.149 31.28C235.856 32.5067 236.709 33.28 236.709 33.6C236.709 33.92 235.856 34.7067 234.149 35.96C232.469 37.1867 230.549 38.3733 228.389 39.52C226.229 40.6667 224.629 41.24 223.589 41.24C223.056 41.24 222.616 41.16 222.269 41C221.923 40.8133 221.709 40.6267 221.629 40.44L221.509 40.2C223.749 39.2933 225.843 38.2933 227.789 37.2C230.536 35.6533 232.336 34.4533 233.189 33.6C232.816 33.28 232.296 32.88 231.629 32.4C230.989 31.8933 229.696 31.0933 227.749 30C225.803 28.88 223.723 27.88 221.509 27C221.616 26.7067 221.856 26.4667 222.229 26.28C222.603 26.0667 223.056 25.96 223.589 25.96C224.629 25.96 226.229 26.5333 228.389 27.68C230.549 28.8267 232.469 30.0267 234.149 31.28Z" fill="black"/>
</svg>
