<svg width="194" height="72" viewBox="0 0 194 72" fill="none" xmlns="http://www.w3.org/2000/svg">
<path d="M4.85 40.2C2.75 38.6333 1.7 37.65 1.7 37.25C1.7 36.85 2.75 35.8833 4.85 34.35C6.98333 32.7833 9.4 31.2833 12.1 29.85C14.8 28.4167 16.8 27.7 18.1 27.7C18.7667 27.7 19.3167 27.8167 19.75 28.05C20.1833 28.25 20.45 28.4667 20.55 28.7L20.7 29C17.9333 30.1 15.3333 31.35 12.9 32.75C10.4667 34.1167 8.83333 35.1167 8 35.75C7.2 36.35 6.56667 36.85 6.1 37.25C7.16667 38.3167 9.16667 39.6833 12.1 41.35C15.0333 42.9833 17.9 44.3667 20.7 45.5C20.5667 45.8667 20.2667 46.1833 19.8 46.45C19.3333 46.6833 18.7667 46.8 18.1 46.8C16.8 46.8 14.8 46.0833 12.1 44.65C9.4 43.2167 6.98333 41.7333 4.85 40.2ZM28.5828 54.65C28.1828 55.45 27.7495 55.85 27.2828 55.85C26.8495 55.85 26.3495 55.5667 25.7828 55L49.0828 11.7C49.4495 11.0333 49.7995 10.7 50.1328 10.7C50.7328 10.7 51.2828 10.9833 51.7828 11.55L28.5828 54.65Z" fill="white"/>
<path d="M66.5557 33.0078C66.5557 32.0312 66.5068 31.014 66.4092 29.9561H65.457C64.4154 29.9561 63.4388 29.8096 62.5273 29.5166C61.6159 29.2236 60.8184 28.8005 60.1348 28.2471C59.4674 27.6937 58.9385 27.0345 58.5479 26.2695C58.1572 25.4883 57.9619 24.6175 57.9619 23.6572C57.9619 23.0062 58.0677 22.3958 58.2793 21.8262C58.5072 21.2402 58.8164 20.7357 59.207 20.3125C59.6139 19.873 60.0941 19.5312 60.6475 19.2871C61.2008 19.0267 61.8193 18.8965 62.5029 18.8965C63.4144 18.8965 64.2282 19.0674 64.9443 19.4092C65.6768 19.751 66.3197 20.2148 66.873 20.8008C67.4264 21.3704 67.9066 22.0459 68.3135 22.8271C68.7204 23.5921 69.0622 24.4141 69.3389 25.293C69.5993 25.1465 69.8434 24.9674 70.0713 24.7559C70.2992 24.5443 70.527 24.3083 70.7549 24.0479C70.9014 23.6084 71.0967 23.3887 71.3408 23.3887C71.5199 23.3887 71.6989 23.4701 71.8779 23.6328C72.0732 23.7793 72.2523 23.9827 72.415 24.2432C72.5778 24.5036 72.708 24.7965 72.8057 25.1221C72.9033 25.4313 72.9521 25.7568 72.9521 26.0986C72.9521 26.7171 72.6917 27.2786 72.1709 27.7832C71.6501 28.2715 70.9746 28.6947 70.1445 29.0527C70.2422 29.7526 70.3154 30.4362 70.3643 31.1035C70.4294 31.7708 70.4619 32.4056 70.4619 33.0078C70.4619 36.1654 70.1445 38.8997 69.5098 41.2109C68.875 43.5221 68.0286 45.4346 66.9707 46.9482C65.9128 48.4456 64.7002 49.5605 63.333 50.293C61.9821 51.0254 60.5742 51.3916 59.1094 51.3916C57.2865 51.3916 55.6833 50.9603 54.2998 50.0977C52.9163 49.2513 51.7526 48.0876 50.8086 46.6064C49.8809 45.1253 49.181 43.4001 48.709 41.4307C48.237 39.445 48.001 37.3372 48.001 35.1074C48.001 32.2754 48.2451 29.7933 48.7334 27.6611C49.238 25.5127 49.8646 23.6654 50.6133 22.1191C51.3783 20.5729 52.2083 19.2871 53.1035 18.2617C53.9987 17.2363 54.8288 16.4144 55.5938 15.7959C56.375 15.1774 57.0342 14.738 57.5713 14.4775C58.1247 14.2171 58.4339 14.0706 58.499 14.0381C58.5804 14.0055 58.6618 13.9811 58.7432 13.9648C58.8408 13.9486 58.9466 13.9404 59.0605 13.9404C59.3372 13.9404 59.5814 14.0299 59.793 14.209C60.0046 14.3717 60.1836 14.5833 60.3301 14.8438C60.4766 15.0879 60.5905 15.3646 60.6719 15.6738C60.7533 15.9831 60.7939 16.276 60.7939 16.5527C60.7939 16.8783 60.7451 17.1549 60.6475 17.3828C60.5498 17.5944 60.387 17.7002 60.1592 17.7002C60.0452 17.7002 59.9557 17.6839 59.8906 17.6514C59.5977 17.8141 59.1989 18.0501 58.6943 18.3594C58.2061 18.6686 57.6689 19.0999 57.083 19.6533C56.4971 20.1904 55.903 20.874 55.3008 21.7041C54.6986 22.5342 54.1533 23.5514 53.665 24.7559C53.1768 25.944 52.778 27.3519 52.4688 28.9795C52.1595 30.5908 52.0049 32.4626 52.0049 34.5947C52.0049 36.8571 52.2165 38.8102 52.6396 40.4541C53.0628 42.098 53.6162 43.457 54.2998 44.5312C54.9834 45.5892 55.7565 46.3786 56.6191 46.8994C57.4818 47.404 58.3607 47.6562 59.2559 47.6562C60.2975 47.6562 61.2578 47.3307 62.1367 46.6797C63.0319 46.0286 63.7969 45.0846 64.4316 43.8477C65.0827 42.5944 65.5954 41.0645 65.9697 39.2578C66.3441 37.4349 66.5394 35.3516 66.5557 33.0078ZM65.8965 26.4893C65.7663 25.9196 65.6117 25.3906 65.4326 24.9023C65.2536 24.4141 65.0339 23.999 64.7734 23.6572C64.513 23.2992 64.2201 23.0225 63.8945 22.8271C63.5853 22.6156 63.2354 22.5098 62.8447 22.5098C62.3402 22.5098 62.0065 22.6481 61.8438 22.9248C61.681 23.2015 61.5996 23.4782 61.5996 23.7549C61.5996 24.0479 61.6647 24.3571 61.7949 24.6826C61.9414 25.0081 62.1611 25.3092 62.4541 25.5859C62.7633 25.8464 63.154 26.0661 63.626 26.2451C64.098 26.4079 64.6595 26.4893 65.3105 26.4893H65.8965ZM77.9814 35.2051C78.1605 34.8633 78.3314 34.4076 78.4941 33.8379C78.6732 33.252 78.8359 32.609 78.9824 31.9092C79.1452 31.2093 79.2917 30.4769 79.4219 29.7119C79.5521 28.9469 79.666 28.1982 79.7637 27.4658C79.8613 26.7334 79.9346 26.0498 79.9834 25.415C80.0485 24.764 80.0811 24.2106 80.0811 23.7549C80.0811 22.0947 79.959 20.8822 79.7148 20.1172C79.4707 19.3359 79.1452 18.9453 78.7383 18.9453C78.6081 18.9453 78.4941 19.0104 78.3965 19.1406C78.2988 19.2708 78.2174 19.4417 78.1523 19.6533C78.0872 19.8486 78.0384 20.0684 78.0059 20.3125C77.9896 20.5404 77.9814 20.752 77.9814 20.9473V35.2051ZM85.0859 42.749C85.1836 42.2607 85.3301 41.9108 85.5254 41.6992C85.737 41.4714 85.9567 41.3493 86.1846 41.333C86.4287 41.3005 86.6729 41.3574 86.917 41.5039C87.1611 41.6341 87.3727 41.8132 87.5518 42.041C87.7308 42.2689 87.861 42.5293 87.9424 42.8223C88.04 43.099 88.0563 43.3757 87.9912 43.6523C87.7633 44.3197 87.4378 45.1009 87.0146 45.9961C86.5915 46.8913 86.0544 47.7376 85.4033 48.5352C84.7523 49.3327 83.9873 50.0081 83.1084 50.5615C82.2295 51.1149 81.2204 51.3916 80.0811 51.3916C79.1208 51.3916 78.2744 51.2288 77.542 50.9033C76.8096 50.5941 76.1911 50.1546 75.6865 49.585C75.1982 48.999 74.8239 48.3073 74.5635 47.5098C74.3193 46.696 74.1973 45.7926 74.1973 44.7998V22.0459C74.1973 21.1182 74.3112 20.2637 74.5391 19.4824C74.7832 18.6849 75.1087 18.0094 75.5156 17.4561C75.9388 16.8864 76.4271 16.4469 76.9805 16.1377C77.5339 15.8122 78.1198 15.6494 78.7383 15.6494C79.4707 15.6494 80.0892 15.7878 80.5938 16.0645C81.0983 16.3249 81.5133 16.6748 81.8389 17.1143C82.1644 17.5537 82.4167 18.0583 82.5957 18.6279C82.791 19.1976 82.9294 19.7835 83.0107 20.3857C83.0921 20.9717 83.141 21.5576 83.1572 22.1436C83.1735 22.7132 83.1816 23.234 83.1816 23.7061C83.1816 24.9268 83.0677 26.2126 82.8398 27.5635C82.612 28.8981 82.319 30.2165 81.9609 31.5186C81.6191 32.8206 81.2367 34.0739 80.8135 35.2783C80.4066 36.4665 80.0078 37.5244 79.6172 38.4521C79.2428 39.3799 78.901 40.1367 78.5918 40.7227C78.2988 41.3086 78.0954 41.6504 77.9814 41.748V44.6533C77.9814 45.6624 78.193 46.4925 78.6162 47.1436C79.0394 47.7783 79.7148 48.0957 80.6426 48.0957C81.2122 48.0957 81.7412 47.9248 82.2295 47.583C82.734 47.2249 83.1735 46.7855 83.5479 46.2646C83.9385 45.7275 84.264 45.1497 84.5244 44.5312C84.7848 43.8965 84.972 43.3024 85.0859 42.749ZM99.3682 48.0957C99.8727 48.0957 100.304 47.9167 100.662 47.5586C101.036 47.2005 101.354 46.7529 101.614 46.2158C101.891 45.6787 102.111 45.1009 102.273 44.4824C102.452 43.8477 102.599 43.2536 102.713 42.7002C102.827 42.1794 102.99 41.805 103.201 41.5771C103.429 41.333 103.673 41.2109 103.934 41.2109C104.129 41.2109 104.324 41.276 104.52 41.4062C104.731 41.5202 104.918 41.6748 105.081 41.8701C105.26 42.0654 105.398 42.2852 105.496 42.5293C105.61 42.7734 105.667 43.0176 105.667 43.2617C105.667 43.2943 105.667 43.335 105.667 43.3838C105.667 43.4326 105.651 43.5059 105.618 43.6035C105.407 44.4336 105.114 45.3044 104.739 46.2158C104.381 47.1273 103.917 47.9655 103.348 48.7305C102.778 49.4954 102.086 50.1302 101.272 50.6348C100.475 51.1393 99.5391 51.3916 98.4648 51.3916C97.5859 51.3916 96.821 51.2044 96.1699 50.8301C95.5189 50.4557 95.0062 49.9593 94.6318 49.3408C94.1273 49.9105 93.5169 50.3906 92.8008 50.7812C92.1009 51.1882 91.279 51.3916 90.335 51.3916C89.3584 51.3916 88.4958 51.1963 87.7471 50.8057C87.0146 50.415 86.3962 49.8861 85.8916 49.2188C85.387 48.5352 85.0046 47.7376 84.7441 46.8262C84.5 45.8984 84.3779 44.9056 84.3779 43.8477C84.3779 41.7643 84.7116 39.8926 85.3789 38.2324C86.0462 36.5723 86.9333 35.1644 88.04 34.0088C89.1468 32.8369 90.4082 31.9417 91.8242 31.3232C93.2565 30.7048 94.7376 30.3955 96.2676 30.3955C96.9512 30.3955 97.5046 30.5827 97.9277 30.957C98.3509 31.3314 98.5625 31.8441 98.5625 32.4951C98.5625 32.9183 98.5137 33.2194 98.416 33.3984C98.3346 33.5612 98.1719 33.6426 97.9277 33.6426C97.6999 33.6426 97.4639 33.6263 97.2197 33.5938C96.9756 33.5612 96.7233 33.5449 96.4629 33.5449C95.5189 33.5449 94.5586 33.7565 93.582 34.1797C92.6055 34.5866 91.7184 35.2214 90.9209 36.084C90.1396 36.9303 89.4967 38.0127 88.9922 39.3311C88.4876 40.6331 88.2354 42.1875 88.2354 43.9941C88.2354 45.3125 88.4876 46.3298 88.9922 47.0459C89.4967 47.7458 90.1885 48.0957 91.0674 48.0957C91.751 48.0957 92.3206 47.8434 92.7764 47.3389C93.2321 46.818 93.5983 46.2077 93.875 45.5078V37.793C93.875 37.5488 93.8587 37.3454 93.8262 37.1826C93.8099 37.0199 93.7855 36.8815 93.7529 36.7676C93.7367 36.6536 93.7204 36.556 93.7041 36.4746C93.6878 36.377 93.6797 36.2874 93.6797 36.2061C93.6797 35.9456 93.8018 35.7422 94.0459 35.5957C94.3063 35.4329 94.6156 35.3516 94.9736 35.3516C95.8037 35.3516 96.4629 35.5713 96.9512 36.0107C97.4395 36.4339 97.6836 36.9466 97.6836 37.5488V45.8008C97.6836 46.0775 97.7161 46.3542 97.7812 46.6309C97.8464 46.8913 97.944 47.1354 98.0742 47.3633C98.2044 47.5749 98.3753 47.7539 98.5869 47.9004C98.8148 48.0306 99.0752 48.0957 99.3682 48.0957ZM111.697 33.3496C111.697 32.8776 111.665 32.5358 111.6 32.3242C111.535 32.1126 111.502 31.9173 111.502 31.7383C111.502 31.4941 111.624 31.2988 111.868 31.1523C112.129 30.9896 112.438 30.9082 112.796 30.9082C113.626 30.9082 114.285 31.1279 114.773 31.5674C115.262 31.9906 115.506 32.5033 115.506 33.1055V44.5557C115.522 45.0765 115.563 45.5566 115.628 45.9961C115.709 46.4355 115.84 46.8099 116.019 47.1191C116.198 47.4284 116.442 47.6725 116.751 47.8516C117.06 48.0143 117.459 48.0957 117.947 48.0957C118.419 48.0957 118.81 48.0062 119.119 47.8271C119.445 47.6318 119.705 47.3714 119.9 47.0459C120.096 46.7204 120.234 46.346 120.315 45.9229C120.397 45.4834 120.438 45.0277 120.438 44.5557V33.3496C120.438 32.8776 120.405 32.5358 120.34 32.3242C120.275 32.1126 120.242 31.9173 120.242 31.7383C120.242 31.4941 120.372 31.2988 120.633 31.1523C120.893 30.9896 121.202 30.9082 121.561 30.9082C122.391 30.9082 123.042 31.1279 123.514 31.5674C124.002 31.9906 124.246 32.5033 124.246 33.1055V44.5557C124.246 45.3369 124.165 46.1344 124.002 46.9482C123.855 47.7458 123.562 48.4782 123.123 49.1455C122.684 49.7965 122.065 50.3337 121.268 50.7568C120.47 51.18 119.428 51.3916 118.143 51.3916C117.605 51.3916 117.101 51.3265 116.629 51.1963C116.157 51.0661 115.726 50.887 115.335 50.6592C114.944 50.4476 114.603 50.2035 114.31 49.9268C114.017 49.6338 113.781 49.3245 113.602 48.999C113.439 49.3245 113.195 49.6338 112.869 49.9268C112.56 50.2035 112.202 50.4476 111.795 50.6592C111.388 50.887 110.949 51.0661 110.477 51.1963C110.005 51.3265 109.533 51.3916 109.061 51.3916C108.133 51.3916 107.335 51.2858 106.668 51.0742C106.017 50.8626 105.464 50.5697 105.008 50.1953C104.552 49.8372 104.186 49.4222 103.909 48.9502C103.649 48.4782 103.445 47.9899 103.299 47.4854C103.152 46.9808 103.055 46.4681 103.006 45.9473C102.973 45.4264 102.957 44.9463 102.957 44.5068V33.3496C102.957 32.8776 102.916 32.5358 102.835 32.3242C102.77 32.1126 102.737 31.9173 102.737 31.7383C102.737 31.4941 102.868 31.2988 103.128 31.1523C103.388 30.9896 103.698 30.9082 104.056 30.9082C104.886 30.9082 105.537 31.1279 106.009 31.5674C106.497 31.9906 106.741 32.5033 106.741 33.1055V44.5557C106.741 44.9951 106.766 45.4346 106.814 45.874C106.88 46.2972 106.993 46.6715 107.156 46.9971C107.335 47.3226 107.588 47.5911 107.913 47.8027C108.239 47.998 108.67 48.0957 109.207 48.0957C109.679 48.0957 110.07 48.0062 110.379 47.8271C110.704 47.6318 110.965 47.3714 111.16 47.0459C111.355 46.7204 111.494 46.346 111.575 45.9229C111.657 45.4834 111.697 45.0277 111.697 44.5557V33.3496ZM141.995 48.0957C142.5 48.0957 142.931 47.9167 143.289 47.5586C143.663 47.2005 143.981 46.7529 144.241 46.2158C144.518 45.6787 144.738 45.1009 144.9 44.4824C145.079 43.8477 145.226 43.2536 145.34 42.7002C145.454 42.1794 145.617 41.805 145.828 41.5771C146.056 41.333 146.3 41.2109 146.561 41.2109C146.756 41.2109 146.951 41.276 147.146 41.4062C147.358 41.5202 147.545 41.6748 147.708 41.8701C147.887 42.0654 148.025 42.2852 148.123 42.5293C148.237 42.7734 148.294 43.0176 148.294 43.2617C148.294 43.2943 148.294 43.335 148.294 43.3838C148.294 43.4326 148.278 43.5059 148.245 43.6035C148.034 44.4336 147.741 45.3044 147.366 46.2158C147.008 47.1273 146.544 47.9655 145.975 48.7305C145.405 49.4954 144.713 50.1302 143.899 50.6348C143.102 51.1393 142.166 51.3916 141.092 51.3916C140.213 51.3916 139.448 51.2044 138.797 50.8301C138.146 50.4557 137.633 49.9593 137.259 49.3408C136.754 49.9105 136.144 50.3906 135.428 50.7812C134.728 51.1882 133.906 51.3916 132.962 51.3916C131.985 51.3916 131.123 51.1963 130.374 50.8057C129.642 50.415 129.023 49.8861 128.519 49.2188C128.014 48.5352 127.632 47.7376 127.371 46.8262C127.127 45.8984 127.005 44.9056 127.005 43.8477C127.005 41.7643 127.339 39.8926 128.006 38.2324C128.673 36.5723 129.56 35.1644 130.667 34.0088C131.774 32.8369 133.035 31.9417 134.451 31.3232C135.883 30.7048 137.365 30.3955 138.895 30.3955C139.578 30.3955 140.132 30.5827 140.555 30.957C140.978 31.3314 141.189 31.8441 141.189 32.4951C141.189 32.9183 141.141 33.2194 141.043 33.3984C140.962 33.5612 140.799 33.6426 140.555 33.6426C140.327 33.6426 140.091 33.6263 139.847 33.5938C139.603 33.5612 139.35 33.5449 139.09 33.5449C138.146 33.5449 137.186 33.7565 136.209 34.1797C135.232 34.5866 134.345 35.2214 133.548 36.084C132.767 36.9303 132.124 38.0127 131.619 39.3311C131.115 40.6331 130.862 42.1875 130.862 43.9941C130.862 45.3125 131.115 46.3298 131.619 47.0459C132.124 47.7458 132.815 48.0957 133.694 48.0957C134.378 48.0957 134.948 47.8434 135.403 47.3389C135.859 46.818 136.225 46.2077 136.502 45.5078V37.793C136.502 37.5488 136.486 37.3454 136.453 37.1826C136.437 37.0199 136.412 36.8815 136.38 36.7676C136.364 36.6536 136.347 36.556 136.331 36.4746C136.315 36.377 136.307 36.2874 136.307 36.2061C136.307 35.9456 136.429 35.7422 136.673 35.5957C136.933 35.4329 137.243 35.3516 137.601 35.3516C138.431 35.3516 139.09 35.5713 139.578 36.0107C140.066 36.4339 140.311 36.9466 140.311 37.5488V45.8008C140.311 46.0775 140.343 46.3542 140.408 46.6309C140.473 46.8913 140.571 47.1354 140.701 47.3633C140.831 47.5749 141.002 47.7539 141.214 47.9004C141.442 48.0306 141.702 48.0957 141.995 48.0957ZM149.368 35.2051C149.547 34.8633 149.718 34.4076 149.881 33.8379C150.06 33.252 150.223 32.609 150.369 31.9092C150.532 31.2093 150.678 30.4769 150.809 29.7119C150.939 28.9469 151.053 28.1982 151.15 27.4658C151.248 26.7334 151.321 26.0498 151.37 25.415C151.435 24.764 151.468 24.2106 151.468 23.7549C151.468 22.0947 151.346 20.8822 151.102 20.1172C150.857 19.3359 150.532 18.9453 150.125 18.9453C149.995 18.9453 149.881 19.0104 149.783 19.1406C149.686 19.2708 149.604 19.4417 149.539 19.6533C149.474 19.8486 149.425 20.0684 149.393 20.3125C149.376 20.5404 149.368 20.752 149.368 20.9473V35.2051ZM156.473 42.749C156.57 42.2607 156.717 41.9108 156.912 41.6992C157.124 41.4714 157.343 41.3493 157.571 41.333C157.815 41.3005 158.06 41.3574 158.304 41.5039C158.548 41.6341 158.759 41.8132 158.938 42.041C159.118 42.2689 159.248 42.5293 159.329 42.8223C159.427 43.099 159.443 43.3757 159.378 43.6523C159.15 44.3197 158.825 45.1009 158.401 45.9961C157.978 46.8913 157.441 47.7376 156.79 48.5352C156.139 49.3327 155.374 50.0081 154.495 50.5615C153.616 51.1149 152.607 51.3916 151.468 51.3916C150.507 51.3916 149.661 51.2288 148.929 50.9033C148.196 50.5941 147.578 50.1546 147.073 49.585C146.585 48.999 146.211 48.3073 145.95 47.5098C145.706 46.696 145.584 45.7926 145.584 44.7998V22.0459C145.584 21.1182 145.698 20.2637 145.926 19.4824C146.17 18.6849 146.495 18.0094 146.902 17.4561C147.326 16.8864 147.814 16.4469 148.367 16.1377C148.921 15.8122 149.507 15.6494 150.125 15.6494C150.857 15.6494 151.476 15.7878 151.98 16.0645C152.485 16.3249 152.9 16.6748 153.226 17.1143C153.551 17.5537 153.803 18.0583 153.982 18.6279C154.178 19.1976 154.316 19.7835 154.397 20.3857C154.479 20.9717 154.528 21.5576 154.544 22.1436C154.56 22.7132 154.568 23.234 154.568 23.7061C154.568 24.9268 154.454 26.2126 154.227 27.5635C153.999 28.8981 153.706 30.2165 153.348 31.5186C153.006 32.8206 152.623 34.0739 152.2 35.2783C151.793 36.4665 151.395 37.5244 151.004 38.4521C150.63 39.3799 150.288 40.1367 149.979 40.7227C149.686 41.3086 149.482 41.6504 149.368 41.748V44.6533C149.368 45.6624 149.58 46.4925 150.003 47.1436C150.426 47.7783 151.102 48.0957 152.029 48.0957C152.599 48.0957 153.128 47.9248 153.616 47.583C154.121 47.2249 154.56 46.7855 154.935 46.2646C155.325 45.7275 155.651 45.1497 155.911 44.5312C156.172 43.8965 156.359 43.3024 156.473 42.749ZM168.118 35.4492C168.118 36.377 167.955 37.3291 167.63 38.3057C167.321 39.2822 166.849 40.21 166.214 41.0889C165.595 41.9515 164.822 42.7327 163.895 43.4326C162.983 44.1162 161.925 44.637 160.721 44.9951C160.883 45.4183 161.095 45.8252 161.355 46.2158C161.632 46.5902 161.958 46.9157 162.332 47.1924C162.706 47.4691 163.138 47.6888 163.626 47.8516C164.131 48.0143 164.708 48.0957 165.359 48.0957C166.336 48.0957 167.174 47.9167 167.874 47.5586C168.574 47.1842 169.16 46.696 169.632 46.0938C170.12 45.4915 170.511 44.8161 170.804 44.0674C171.097 43.3187 171.316 42.5618 171.463 41.7969C171.577 41.2435 171.805 40.8773 172.146 40.6982C172.505 40.5029 172.863 40.4541 173.221 40.5518C173.595 40.6494 173.912 40.861 174.173 41.1865C174.45 41.4958 174.563 41.8701 174.515 42.3096C174.45 42.8141 174.336 43.3919 174.173 44.043C174.026 44.694 173.799 45.3532 173.489 46.0205C173.18 46.6878 172.781 47.347 172.293 47.998C171.821 48.6328 171.235 49.2025 170.535 49.707C169.835 50.2116 169.013 50.6185 168.069 50.9277C167.125 51.237 166.043 51.3916 164.822 51.3916C163.683 51.3916 162.576 51.1637 161.502 50.708C160.444 50.2686 159.5 49.6338 158.67 48.8037C157.856 47.9574 157.197 46.9238 156.692 45.7031C156.204 44.4661 155.96 43.0664 155.96 41.5039C155.96 39.9251 156.18 38.4603 156.619 37.1094C157.059 35.7422 157.636 34.5622 158.353 33.5693C159.069 32.5765 159.882 31.8034 160.794 31.25C161.705 30.6803 162.641 30.3955 163.602 30.3955C164.301 30.3955 164.928 30.5176 165.481 30.7617C166.051 31.0059 166.531 31.3558 166.922 31.8115C167.312 32.251 167.605 32.7799 167.801 33.3984C168.012 34.0169 168.118 34.7005 168.118 35.4492ZM160.062 41.3574C160.062 41.5039 160.07 41.6504 160.086 41.7969C160.102 41.9434 160.11 42.098 160.11 42.2607C160.729 41.9678 161.29 41.5934 161.795 41.1377C162.299 40.682 162.731 40.1611 163.089 39.5752C163.447 38.9893 163.724 38.3545 163.919 37.6709C164.114 36.971 164.212 36.2467 164.212 35.498C164.212 34.9447 164.114 34.5133 163.919 34.2041C163.74 33.8949 163.488 33.7402 163.162 33.7402C162.755 33.7402 162.389 33.8786 162.063 34.1553C161.754 34.432 161.478 34.7982 161.233 35.2539C161.006 35.6934 160.81 36.1979 160.647 36.7676C160.501 37.321 160.379 37.8825 160.281 38.4521C160.184 39.0218 160.118 39.5671 160.086 40.0879C160.053 40.5924 160.045 41.0156 160.062 41.3574Z" fill="white"/>
<path d="M188.55 37.35C190.683 38.8833 191.75 39.85 191.75 40.25C191.75 40.65 190.683 41.6333 188.55 43.2C186.45 44.7333 184.05 46.2167 181.35 47.65C178.65 49.0833 176.65 49.8 175.35 49.8C174.683 49.8 174.133 49.7 173.7 49.5C173.267 49.2667 173 49.0333 172.9 48.8L172.75 48.5C175.55 47.3667 178.167 46.1167 180.6 44.75C184.033 42.8167 186.283 41.3167 187.35 40.25C186.883 39.85 186.233 39.35 185.4 38.75C184.6 38.1167 182.983 37.1167 180.55 35.75C178.117 34.35 175.517 33.1 172.75 32C172.883 31.6333 173.183 31.3333 173.65 31.1C174.117 30.8333 174.683 30.7 175.35 30.7C176.65 30.7 178.65 31.4167 181.35 32.85C184.05 34.2833 186.45 35.7833 188.55 37.35Z" fill="white"/>
</svg>
